<mxfile host="app.diagrams.net" modified="2023-09-14T23:17:23.554Z" agent="Mozilla/5.0 (Windows NT 10.0; Win64; x64) AppleWebKit/537.36 (KHTML, like Gecko) Chrome/116.0.0.0 Safari/537.36" etag="UArwA4WBtrwlF7-9p7I5" version="21.7.2" type="github">
  <diagram name="Page-1" id="kUzNHHnSzOs-YtB_RlaH">
    <mxGraphModel dx="1728" dy="932" grid="1" gridSize="10" guides="1" tooltips="1" connect="1" arrows="1" fold="1" page="1" pageScale="1" pageWidth="827" pageHeight="1169" math="0" shadow="0">
      <root>
        <mxCell id="0" />
        <mxCell id="1" parent="0" />
        <mxCell id="yr3GeG7Wv9YJoafyF06X-6" value="a,b" style="rounded=1;whiteSpace=wrap;html=1;" vertex="1" parent="1">
          <mxGeometry x="130" y="500" width="120" height="40" as="geometry" />
        </mxCell>
        <mxCell id="yr3GeG7Wv9YJoafyF06X-7" value="c,d" style="rounded=1;whiteSpace=wrap;html=1;" vertex="1" parent="1">
          <mxGeometry x="130" y="560" width="120" height="40" as="geometry" />
        </mxCell>
        <mxCell id="yr3GeG7Wv9YJoafyF06X-8" value="" style="shape=flexArrow;endArrow=classic;html=1;rounded=0;width=11;endSize=9.67;" edge="1" parent="1">
          <mxGeometry width="50" height="50" relative="1" as="geometry">
            <mxPoint x="280" y="549.9200000000001" as="sourcePoint" />
            <mxPoint x="350" y="549.9200000000001" as="targetPoint" />
          </mxGeometry>
        </mxCell>
        <mxCell id="yr3GeG7Wv9YJoafyF06X-9" value="扩容" style="edgeLabel;html=1;align=center;verticalAlign=middle;resizable=0;points=[];labelBackgroundColor=none;" vertex="1" connectable="0" parent="yr3GeG7Wv9YJoafyF06X-8">
          <mxGeometry x="-0.1524" y="3" relative="1" as="geometry">
            <mxPoint x="18" y="3" as="offset" />
          </mxGeometry>
        </mxCell>
        <mxCell id="yr3GeG7Wv9YJoafyF06X-10" value="a,b,c,d" style="rounded=1;whiteSpace=wrap;html=1;" vertex="1" parent="1">
          <mxGeometry x="380" y="470" width="120" height="40" as="geometry" />
        </mxCell>
        <mxCell id="yr3GeG7Wv9YJoafyF06X-11" value="a,b,c,d" style="rounded=1;whiteSpace=wrap;html=1;" vertex="1" parent="1">
          <mxGeometry x="380" y="530" width="120" height="40" as="geometry" />
        </mxCell>
        <mxCell id="yr3GeG7Wv9YJoafyF06X-12" value="a,b,c,d" style="rounded=1;whiteSpace=wrap;html=1;" vertex="1" parent="1">
          <mxGeometry x="380" y="590" width="120" height="40" as="geometry" />
        </mxCell>
        <mxCell id="yr3GeG7Wv9YJoafyF06X-14" value="" style="shape=flexArrow;endArrow=classic;html=1;rounded=0;width=11;endSize=9.67;" edge="1" parent="1">
          <mxGeometry width="50" height="50" relative="1" as="geometry">
            <mxPoint x="530" y="549.71" as="sourcePoint" />
            <mxPoint x="600" y="549.71" as="targetPoint" />
          </mxGeometry>
        </mxCell>
        <mxCell id="yr3GeG7Wv9YJoafyF06X-15" value="缩容" style="edgeLabel;html=1;align=center;verticalAlign=middle;resizable=0;points=[];labelBackgroundColor=none;" vertex="1" connectable="0" parent="yr3GeG7Wv9YJoafyF06X-14">
          <mxGeometry x="-0.019" y="-2" relative="1" as="geometry">
            <mxPoint x="14" y="-2" as="offset" />
          </mxGeometry>
        </mxCell>
        <mxCell id="yr3GeG7Wv9YJoafyF06X-16" value="a,b,c,d,a,b,c,d,a,b,c,d" style="rounded=1;whiteSpace=wrap;html=1;" vertex="1" parent="1">
          <mxGeometry x="610" y="500" width="120" height="40" as="geometry" />
        </mxCell>
        <mxCell id="yr3GeG7Wv9YJoafyF06X-17" value="a,b,c,d,a,b,c,d,a,b,c,d" style="rounded=1;whiteSpace=wrap;html=1;" vertex="1" parent="1">
          <mxGeometry x="610" y="560" width="120" height="40" as="geometry" />
        </mxCell>
        <mxCell id="yr3GeG7Wv9YJoafyF06X-19" value="" style="shape=flexArrow;endArrow=classic;html=1;rounded=0;width=11;endSize=9.67;" edge="1" parent="1">
          <mxGeometry width="50" height="50" relative="1" as="geometry">
            <mxPoint x="190" y="610" as="sourcePoint" />
            <mxPoint x="190" y="680" as="targetPoint" />
          </mxGeometry>
        </mxCell>
        <mxCell id="yr3GeG7Wv9YJoafyF06X-21" value="通过状态重启" style="edgeLabel;html=1;align=center;verticalAlign=middle;resizable=0;points=[];labelBackgroundColor=none;" vertex="1" connectable="0" parent="yr3GeG7Wv9YJoafyF06X-19">
          <mxGeometry x="0.4848" y="1" relative="1" as="geometry">
            <mxPoint as="offset" />
          </mxGeometry>
        </mxCell>
        <mxCell id="yr3GeG7Wv9YJoafyF06X-22" value="a,b,c,d" style="rounded=1;whiteSpace=wrap;html=1;" vertex="1" parent="1">
          <mxGeometry x="130" y="690" width="120" height="40" as="geometry" />
        </mxCell>
        <mxCell id="yr3GeG7Wv9YJoafyF06X-23" value="a,b,c,d" style="rounded=1;whiteSpace=wrap;html=1;" vertex="1" parent="1">
          <mxGeometry x="130" y="750" width="120" height="40" as="geometry" />
        </mxCell>
      </root>
    </mxGraphModel>
  </diagram>
</mxfile>
